<svg width="600" height="400" viewBox="0 0 600 400" fill="none" xmlns="http://www.w3.org/2000/svg">
  <!-- Background circles -->
  <circle cx="300" cy="200" r="180" fill="#F0F4FF" />
  <circle cx="300" cy="200" r="130" fill="#E1E8FF" />
  
  <!-- Light bulb -->
  <path d="M300 60C255.82 60 220 95.82 220 140C220 166.57 233.49 189.37 254 203.15V240H346V203.15C366.51 189.37 380 166.57 380 140C380 95.82 344.18 60 300 60Z" fill="#FFDD57" />
  <path d="M300 60C255.82 60 220 95.82 220 140C220 166.57 233.49 189.37 254 203.15V240H346V203.15C366.51 189.37 380 166.57 380 140C380 95.82 344.18 60 300 60Z" fill="url(#paint0_radial)" />
  
  <!-- Bulb glass reflections -->
  <path d="M244 140C244 109.07 269.07 84 300 84" stroke="white" stroke-width="10" stroke-linecap="round" />
  <circle cx="260" cy="120" r="8" fill="white" />
  
  <!-- Bulb base -->
  <rect x="270" y="240" width="60" height="20" rx="5" fill="#D0D0D0" />
  <rect x="280" y="260" width="40" height="20" rx="5" fill="#A0A0A0" />
  <rect x="285" y="280" width="30" height="10" rx="5" fill="#808080" />
  
  <!-- Ideas floating out -->
  <!-- Idea 1 -->
  <g transform="translate(380, 100) rotate(10)">
    <rect width="80" height="40" rx="10" fill="white" stroke="#4285F4" stroke-width="2" />
    <circle cx="20" cy="20" r="10" fill="#4285F4" />
    <line x1="40" y1="15" x2="70" y2="15" stroke="#4285F4" stroke-width="2" />
    <line x1="40" y1="25" x2="65" y2="25" stroke="#4285F4" stroke-width="2" />
  </g>
  
  <!-- Idea 2 -->
  <g transform="translate(150, 120) rotate(-15)">
    <rect width="80" height="40" rx="10" fill="white" stroke="#0F9D58" stroke-width="2" />
    <circle cx="20" cy="20" r="10" fill="#0F9D58" />
    <line x1="40" y1="15" x2="70" y2="15" stroke="#0F9D58" stroke-width="2" />
    <line x1="40" y1="25" x2="65" y2="25" stroke="#0F9D58" stroke-width="2" />
  </g>
  
  <!-- Idea 3 -->
  <g transform="translate(170, 220) rotate(-5)">
    <rect width="80" height="40" rx="10" fill="white" stroke="#DB4437" stroke-width="2" />
    <circle cx="20" cy="20" r="10" fill="#DB4437" />
    <line x1="40" y1="15" x2="70" y2="15" stroke="#DB4437" stroke-width="2" />
    <line x1="40" y1="25" x2="65" y2="25" stroke="#DB4437" stroke-width="2" />
  </g>
  
  <!-- Idea 4 -->
  <g transform="translate(350, 240) rotate(15)">
    <rect width="80" height="40" rx="10" fill="white" stroke="#F4B400" stroke-width="2" />
    <circle cx="20" cy="20" r="10" fill="#F4B400" />
    <line x1="40" y1="15" x2="70" y2="15" stroke="#F4B400" stroke-width="2" />
    <line x1="40" y1="25" x2="65" y2="25" stroke="#F4B400" stroke-width="2" />
  </g>
  
  <!-- Gradient for the bulb -->
  <defs>
    <radialGradient id="paint0_radial" cx="0" cy="0" r="1" gradientUnits="userSpaceOnUse" gradientTransform="translate(300 140) rotate(90) scale(100)">
      <stop stop-color="white" stop-opacity="0.6" />
      <stop offset="1" stop-color="#FFDD57" stop-opacity="0" />
    </radialGradient>
  </defs>
</svg> 