<svg width="400" height="400" viewBox="0 0 400 400" xmlns="http://www.w3.org/2000/svg">
  <rect width="400" height="400" fill="#f0f0f0" rx="20" ry="20"/>
  
  <!-- Brain outline -->
  <path d="M200 80 C 260 80, 300 150, 300 200 C 300 250, 260 320, 200 320 C 140 320, 100 250, 100 200 C 100 150, 140 80, 200 80 Z" 
        fill="none" stroke="#7c3aed" stroke-width="6"/>
  
  <!-- Brain details -->
  <path d="M150 140 C 170 120, 190 120, 200 140" fill="none" stroke="#7c3aed" stroke-width="4"/>
  <path d="M250 140 C 230 120, 210 120, 200 140" fill="none" stroke="#7c3aed" stroke-width="4"/>
  
  <path d="M150 180 C 170 160, 190 160, 200 180" fill="none" stroke="#7c3aed" stroke-width="4"/>
  <path d="M250 180 C 230 160, 210 160, 200 180" fill="none" stroke="#7c3aed" stroke-width="4"/>
  
  <path d="M150 220 C 170 200, 190 200, 200 220" fill="none" stroke="#7c3aed" stroke-width="4"/>
  <path d="M250 220 C 230 200, 210 200, 200 220" fill="none" stroke="#7c3aed" stroke-width="4"/>
  
  <path d="M150 260 C 170 240, 190 240, 200 260" fill="none" stroke="#7c3aed" stroke-width="4"/>
  <path d="M250 260 C 230 240, 210 240, 200 260" fill="none" stroke="#7c3aed" stroke-width="4"/>
  
  <!-- Lightbulb -->
  <circle cx="200" cy="160" r="30" fill="#ffdd57"/>
  <path d="M185 180 L185 200 L215 200 L215 180 Z" fill="#ffdd57"/>
  <path d="M190 200 L190 210 L210 210 L210 200 Z" fill="#ffbb00"/>
  
  <!-- Idea sparks -->
  <circle cx="170" cy="130" r="8" fill="#2563eb"/>
  <circle cx="230" cy="130" r="8" fill="#2563eb"/>
  <circle cx="150" cy="170" r="8" fill="#2563eb"/>
  <circle cx="250" cy="170" r="8" fill="#2563eb"/>
  <circle cx="180" cy="100" r="8" fill="#2563eb"/>
  <circle cx="220" cy="100" r="8" fill="#2563eb"/>
</svg> 